<svg xmlns="http://www.w3.org/2000/svg" viewBox="0 0 900 700" role="img" aria-labelledby="t d">
<title id="t">Parole Liquide</title><desc id="d">Composizione editoriale con boccette ambrate, provette, carta avorio e ceralacca.</desc>
<defs>
  <linearGradient id="bg" x1="0" y1="0" x2="1" y2="1"><stop stop-color="#3a2e24"/><stop offset="1" stop-color="#151311"/></linearGradient>
  <linearGradient id="glass" x1="0" y1="0" x2="1" y2="1"><stop stop-color="#d7a86f" stop-opacity=".8"/><stop offset="1" stop-color="#5f351f" stop-opacity=".95"/></linearGradient>
  <filter id="shadow"><feDropShadow dx="0" dy="18" stdDeviation="18" flood-opacity=".35"/></filter>
</defs>
<rect width="900" height="700" fill="url(#bg)"/>
<circle cx="170" cy="95" r="170" fill="#c9a66b" opacity=".12"/>
<circle cx="780" cy="610" r="260" fill="#fff" opacity=".04"/>
<g filter="url(#shadow)">
  <rect x="92" y="100" width="250" height="480" rx="12" fill="#efe7d9"/>
  <text x="124" y="150" fill="#866c46" font-family="Georgia,serif" font-size="17" letter-spacing="4">LA TUA TRACCIA</text>
  <line x1="124" y1="176" x2="310" y2="176" stroke="#b9a98f"/>
  <text x="124" y="247" fill="#1f1b17" font-family="Georgia,serif" font-size="38">FIDUCIA</text>
  <text x="124" y="320" fill="#1f1b17" font-family="Georgia,serif" font-size="38">PRESENZA</text>
  <text x="124" y="393" fill="#1f1b17" font-family="Georgia,serif" font-size="38">LIBERTÀ</text>
  <text x="124" y="510" fill="#786e63" font-family="Arial,sans-serif" font-size="16">Tre parole. Una Traccia.</text>
</g>
<g filter="url(#shadow)">
  <rect x="515" y="165" width="158" height="300" rx="44" fill="url(#glass)" stroke="#e8c592" stroke-opacity=".55" stroke-width="3"/>
  <rect x="548" y="115" width="92" height="74" rx="12" fill="#191615" stroke="#a88b55" stroke-width="3"/>
  <rect x="535" y="275" width="118" height="66" rx="4" fill="#efe7d9"/>
  <text x="594" y="302" text-anchor="middle" fill="#80633d" font-family="Arial,sans-serif" font-size="11" letter-spacing="2">PAROLA LIQUIDA</text>
  <text x="594" y="329" text-anchor="middle" fill="#201b17" font-family="Georgia,serif" font-size="23">FIDUCIA</text>
  <circle cx="594" cy="471" r="31" fill="#7b1f25"/>
  <path d="M579 471c10-16 21-16 31 0-10 12-21 12-31 0z" fill="#c46a60" opacity=".8"/>
</g>
<g opacity=".9">
  <rect x="720" y="190" width="34" height="260" rx="17" fill="#e9edf0" fill-opacity=".35" stroke="#fff" stroke-opacity=".45"/>
  <rect x="774" y="225" width="34" height="225" rx="17" fill="#e9edf0" fill-opacity=".3" stroke="#fff" stroke-opacity=".4"/>
  <rect x="728" y="330" width="18" height="112" rx="9" fill="#b47c51" opacity=".75"/>
  <rect x="782" y="365" width="18" height="77" rx="9" fill="#c9a66b" opacity=".78"/>
</g>
<text x="470" y="625" text-anchor="middle" fill="#f3eadb" font-family="Georgia,serif" font-size="43">Parole Liquide</text>
<text x="470" y="657" text-anchor="middle" fill="#bfae98" font-family="Arial,sans-serif" font-size="14" letter-spacing="4">LE PAROLE LASCIANO UNA TRACCIA</text>
</svg>
